<svg xmlns="http://www.w3.org/2000/svg" xmlns:xlink="http://www.w3.org/1999/xlink" width="500" zoomAndPan="magnify" viewBox="0 0 375 374.999991" height="500" preserveAspectRatio="xMidYMid meet" version="1.0"><defs><clipPath id="0273724e8b"><path d="M 40.566406 26.808594 L 334.566406 26.808594 L 334.566406 320.808594 L 40.566406 320.808594 Z M 40.566406 26.808594 " clip-rule="nonzero"/></clipPath></defs><rect x="-37.5" width="450" fill="#ffffff" y="-37.499999" height="449.999989" fill-opacity="1"/><rect x="-37.5" width="450" fill="#ffffff" y="-37.499999" height="449.999989" fill-opacity="1"/><rect x="-37.5" width="450" fill="#ffffff" y="-37.499999" height="449.999989" fill-opacity="1"/><path fill="#000000" d="M 328.125 375 L 46.875 375 C 21 375 0 354 0 328.125 L 0 46.875 C 0 21 21 0 46.875 0 L 328.125 0 C 354 0 375 21 375 46.875 L 375 328.125 C 375 354 354 375 328.125 375 Z M 144 282.75 C 232.40625 282.75 280.78125 209.4375 280.78125 145.96875 C 280.78125 143.90625 280.78125 141.84375 280.6875 139.78125 C 290.0625 133.03125 298.21875 124.5 304.6875 114.84375 C 296.0625 118.6875 286.78125 121.21875 277.03125 122.4375 C 286.96875 116.53125 294.5625 107.0625 298.21875 95.8125 C 288.9375 101.34375 278.625 105.28125 267.65625 107.4375 C 258.84375 98.0625 246.375 92.25 232.59375 92.25 C 206.0625 92.25 184.5 113.8125 184.5 140.34375 C 184.5 144.09375 184.96875 147.75 185.71875 151.3125 C 145.78125 149.34375 110.34375 130.125 86.625 101.0625 C 82.5 108.1875 80.15625 116.4375 80.15625 125.25 C 80.15625 141.9375 88.6875 156.65625 101.53125 165.28125 C 93.65625 165 86.25 162.84375 79.78125 159.28125 C 79.78125 159.46875 79.78125 159.65625 79.78125 159.9375 C 79.78125 183.1875 96.375 202.6875 118.3125 207.09375 C 114.28125 208.21875 110.0625 208.78125 105.65625 208.78125 C 102.5625 208.78125 99.5625 208.5 96.65625 207.9375 C 102.75 227.0625 120.5625 240.9375 141.5625 241.3125 C 125.0625 254.25 104.34375 261.9375 81.84375 261.9375 C 78 261.9375 74.15625 261.75 70.40625 261.28125 C 91.59375 274.78125 116.90625 282.75 144 282.75 " fill-opacity="1" fill-rule="nonzero"/><g clip-path="url(#0273724e8b)"><path fill="#ffffff" d="M 334.566406 173.808594 C 334.566406 176.214844 334.507812 178.617188 334.390625 181.019531 C 334.269531 183.425781 334.09375 185.824219 333.859375 188.214844 C 333.621094 190.609375 333.328125 192.996094 332.976562 195.378906 C 332.621094 197.757812 332.210938 200.125 331.742188 202.488281 C 331.273438 204.847656 330.746094 207.191406 330.160156 209.527344 C 329.574219 211.859375 328.933594 214.179688 328.234375 216.480469 C 327.539062 218.78125 326.785156 221.066406 325.972656 223.332031 C 325.164062 225.597656 324.296875 227.839844 323.375 230.0625 C 322.457031 232.285156 321.480469 234.484375 320.453125 236.660156 C 319.421875 238.832031 318.34375 240.980469 317.207031 243.101562 C 316.074219 245.226562 314.890625 247.316406 313.652344 249.382812 C 312.414062 251.445312 311.128906 253.476562 309.792969 255.476562 C 308.457031 257.476562 307.070312 259.445312 305.636719 261.375 C 304.203125 263.308594 302.726562 265.203125 301.199219 267.0625 C 299.671875 268.921875 298.101562 270.746094 296.484375 272.527344 C 294.871094 274.308594 293.210938 276.050781 291.511719 277.753906 C 289.808594 279.453125 288.066406 281.113281 286.285156 282.726562 C 284.503906 284.34375 282.679688 285.914062 280.820312 287.441406 C 278.960938 288.96875 277.066406 290.445312 275.132812 291.878906 C 273.203125 293.3125 271.234375 294.699219 269.234375 296.035156 C 267.234375 297.371094 265.203125 298.65625 263.140625 299.894531 C 261.074219 301.132812 258.984375 302.316406 256.863281 303.449219 C 254.738281 304.585938 252.589844 305.664062 250.417969 306.695312 C 248.242188 307.722656 246.042969 308.699219 243.820312 309.617188 C 241.597656 310.539062 239.355469 311.40625 237.089844 312.214844 C 234.824219 313.027344 232.539062 313.78125 230.238281 314.476562 C 227.9375 315.175781 225.617188 315.816406 223.285156 316.402344 C 220.949219 316.988281 218.605469 317.515625 216.246094 317.984375 C 213.882812 318.453125 211.515625 318.863281 209.136719 319.21875 C 206.753906 319.570312 204.367188 319.863281 201.972656 320.101562 C 199.582031 320.335938 197.183594 320.511719 194.777344 320.632812 C 192.375 320.75 189.972656 320.808594 187.566406 320.808594 C 185.160156 320.808594 182.757812 320.75 180.351562 320.632812 C 177.949219 320.511719 175.550781 320.335938 173.15625 320.101562 C 170.761719 319.863281 168.375 319.570312 165.996094 319.21875 C 163.617188 318.863281 161.246094 318.453125 158.886719 317.984375 C 156.527344 317.515625 154.179688 316.988281 151.847656 316.402344 C 149.515625 315.816406 147.195312 315.175781 144.894531 314.476562 C 142.59375 313.78125 140.308594 313.027344 138.042969 312.214844 C 135.777344 311.40625 133.535156 310.539062 131.3125 309.617188 C 129.089844 308.699219 126.890625 307.722656 124.714844 306.695312 C 122.539062 305.664062 120.390625 304.585938 118.269531 303.449219 C 116.148438 302.316406 114.054688 301.132812 111.992188 299.894531 C 109.929688 298.65625 107.898438 297.371094 105.898438 296.035156 C 103.898438 294.699219 101.929688 293.3125 100 291.878906 C 98.066406 290.445312 96.167969 288.96875 94.308594 287.441406 C 92.449219 285.914062 90.628906 284.34375 88.847656 282.726562 C 87.0625 281.113281 85.324219 279.453125 83.621094 277.753906 C 81.921875 276.050781 80.261719 274.308594 78.644531 272.527344 C 77.03125 270.746094 75.460938 268.921875 73.933594 267.0625 C 72.40625 265.203125 70.925781 263.308594 69.496094 261.375 C 68.0625 259.445312 66.675781 257.476562 65.339844 255.476562 C 64.003906 253.476562 62.714844 251.445312 61.480469 249.382812 C 60.242188 247.316406 59.058594 245.226562 57.921875 243.101562 C 56.789062 240.980469 55.707031 238.832031 54.679688 236.660156 C 53.652344 234.484375 52.675781 232.285156 51.753906 230.0625 C 50.835938 227.839844 49.96875 225.597656 49.160156 223.332031 C 48.347656 221.066406 47.59375 218.78125 46.894531 216.480469 C 46.199219 214.179688 45.554688 211.859375 44.972656 209.527344 C 44.386719 207.191406 43.859375 204.847656 43.390625 202.488281 C 42.921875 200.125 42.511719 197.757812 42.15625 195.378906 C 41.804688 192.996094 41.507812 190.609375 41.273438 188.214844 C 41.039062 185.824219 40.859375 183.425781 40.742188 181.019531 C 40.625 178.617188 40.566406 176.214844 40.566406 173.808594 C 40.566406 171.402344 40.625 169 40.742188 166.59375 C 40.859375 164.191406 41.039062 161.792969 41.273438 159.398438 C 41.507812 157.003906 41.804688 154.617188 42.15625 152.238281 C 42.511719 149.859375 42.921875 147.488281 43.390625 145.128906 C 43.859375 142.769531 44.386719 140.421875 44.972656 138.089844 C 45.554688 135.757812 46.199219 133.4375 46.894531 131.136719 C 47.59375 128.835938 48.347656 126.550781 49.160156 124.285156 C 49.96875 122.019531 50.835938 119.777344 51.753906 117.554688 C 52.675781 115.332031 53.652344 113.132812 54.679688 110.957031 C 55.707031 108.78125 56.789062 106.632812 57.921875 104.511719 C 59.058594 102.390625 60.242188 100.296875 61.480469 98.234375 C 62.714844 96.171875 64.003906 94.140625 65.339844 92.140625 C 66.675781 90.140625 68.0625 88.171875 69.496094 86.242188 C 70.925781 84.308594 72.40625 82.410156 73.933594 80.550781 C 75.460938 78.691406 77.03125 76.871094 78.644531 75.089844 C 80.261719 73.304688 81.921875 71.566406 83.621094 69.863281 C 85.324219 68.164062 87.0625 66.503906 88.847656 64.886719 C 90.628906 63.273438 92.449219 61.703125 94.308594 60.175781 C 96.167969 58.648438 98.066406 57.167969 100 55.738281 C 101.929688 54.304688 103.898438 52.917969 105.898438 51.582031 C 107.898438 50.246094 109.929688 48.957031 111.992188 47.722656 C 114.054688 46.484375 116.148438 45.300781 118.269531 44.164062 C 120.390625 43.03125 122.539062 41.949219 124.714844 40.921875 C 126.890625 39.894531 129.089844 38.917969 131.3125 37.996094 C 133.535156 37.078125 135.777344 36.210938 138.042969 35.402344 C 140.308594 34.589844 142.59375 33.835938 144.894531 33.136719 C 147.195312 32.441406 149.515625 31.796875 151.847656 31.214844 C 154.179688 30.628906 156.527344 30.101562 158.886719 29.632812 C 161.246094 29.164062 163.617188 28.753906 165.996094 28.398438 C 168.375 28.046875 170.761719 27.75 173.15625 27.515625 C 175.550781 27.28125 177.949219 27.101562 180.351562 26.984375 C 182.757812 26.867188 185.160156 26.808594 187.566406 26.808594 C 189.972656 26.808594 192.375 26.867188 194.777344 26.984375 C 197.183594 27.101562 199.582031 27.28125 201.972656 27.515625 C 204.367188 27.75 206.753906 28.046875 209.136719 28.398438 C 211.515625 28.753906 213.882812 29.164062 216.246094 29.632812 C 218.605469 30.101562 220.949219 30.628906 223.285156 31.214844 C 225.617188 31.796875 227.9375 32.441406 230.238281 33.136719 C 232.539062 33.835938 234.824219 34.589844 237.089844 35.402344 C 239.355469 36.210938 241.597656 37.078125 243.820312 37.996094 C 246.042969 38.917969 248.242188 39.894531 250.417969 40.921875 C 252.589844 41.949219 254.738281 43.03125 256.863281 44.164062 C 258.984375 45.300781 261.074219 46.484375 263.140625 47.722656 C 265.203125 48.957031 267.234375 50.246094 269.234375 51.582031 C 271.234375 52.917969 273.203125 54.304688 275.132812 55.738281 C 277.066406 57.167969 278.960938 58.648438 280.820312 60.175781 C 282.679688 61.703125 284.503906 63.273438 286.285156 64.886719 C 288.066406 66.503906 289.808594 68.164062 291.511719 69.863281 C 293.210938 71.566406 294.871094 73.304688 296.484375 75.089844 C 298.101562 76.871094 299.671875 78.691406 301.199219 80.550781 C 302.726562 82.410156 304.203125 84.308594 305.636719 86.242188 C 307.070312 88.171875 308.457031 90.140625 309.792969 92.140625 C 311.128906 94.140625 312.414062 96.171875 313.652344 98.234375 C 314.890625 100.296875 316.074219 102.390625 317.207031 104.511719 C 318.34375 106.632812 319.421875 108.78125 320.453125 110.957031 C 321.480469 113.132812 322.457031 115.332031 323.375 117.554688 C 324.296875 119.777344 325.164062 122.019531 325.972656 124.285156 C 326.785156 126.550781 327.539062 128.835938 328.234375 131.136719 C 328.933594 133.4375 329.574219 135.757812 330.160156 138.089844 C 330.746094 140.421875 331.273438 142.769531 331.742188 145.128906 C 332.210938 147.488281 332.621094 149.859375 332.976562 152.238281 C 333.328125 154.617188 333.621094 157.003906 333.859375 159.398438 C 334.09375 161.792969 334.269531 164.191406 334.390625 166.59375 C 334.507812 169 334.566406 171.402344 334.566406 173.808594 Z M 334.566406 173.808594 " fill-opacity="1" fill-rule="nonzero"/></g><path fill="#000000" d="M 187.347656 -27.671875 C 73.019531 -27.671875 -19.652344 65 -19.652344 179.328125 C -19.652344 293.652344 73.019531 386.328125 187.347656 386.328125 C 301.671875 386.328125 394.347656 293.652344 394.347656 179.328125 C 394.347656 65 301.671875 -27.671875 187.347656 -27.671875 Z M 226.882812 301.332031 C 220.546875 302.554688 218.292969 298.664062 218.292969 295.308594 C 218.292969 291.191406 218.457031 277.695312 218.457031 260.925781 C 218.457031 249.230469 214.464844 241.59375 209.992188 237.722656 C 237.792969 234.617188 267 224.019531 267 175.871094 C 267 162.1875 262.175781 150.988281 254.164062 142.234375 C 255.449219 139.066406 259.734375 126.3125 252.921875 109.070312 C 252.921875 109.070312 242.46875 105.695312 218.625 121.925781 C 208.644531 119.152344 197.964844 117.765625 187.367188 117.703125 C 176.746094 117.765625 166.066406 119.152344 156.109375 121.925781 C 132.261719 105.71875 121.789062 109.070312 121.789062 109.070312 C 115 126.335938 119.285156 139.066406 120.566406 142.234375 C 112.578125 150.988281 107.714844 162.1875 107.714844 175.871094 C 107.714844 223.894531 136.859375 234.636719 164.574219 237.804688 C 161.015625 240.929688 157.785156 246.457031 156.648438 254.550781 C 149.527344 257.757812 131.457031 263.285156 120.320312 244.140625 C 120.320312 244.140625 113.738281 232.113281 101.214844 231.222656 C 101.214844 231.222656 89.019531 231.054688 100.363281 238.839844 C 100.363281 238.839844 108.542969 242.691406 114.210938 257.179688 C 114.210938 257.179688 121.539062 281.5625 156.273438 273.988281 C 156.335938 284.441406 156.441406 292.328125 156.441406 295.308594 C 156.441406 298.621094 154.164062 302.492188 147.914062 301.355469 C 98.292969 284.773438 62.523438 237.804688 62.523438 182.433594 C 62.523438 113.191406 118.414062 57.09375 187.367188 57.09375 C 256.316406 57.09375 312.207031 113.210938 312.207031 182.433594 C 312.207031 237.785156 276.480469 284.730469 226.902344 301.332031 Z M 226.882812 301.332031 " fill-opacity="1" fill-rule="nonzero"/></svg>