<svg xmlns="http://www.w3.org/2000/svg" xmlns:xlink="http://www.w3.org/1999/xlink" width="500" zoomAndPan="magnify" viewBox="0 0 375 149.999998" height="200" preserveAspectRatio="xMidYMid meet" version="1.0"><defs><g/></defs><g fill="#e60378" fill-opacity="1"><g transform="translate(249.190741, 65.385731)"><g><path d="M 2.359375 0 C 2.066406 0 1.921875 -0.144531 1.921875 -0.4375 L 1.921875 -14.171875 C 1.921875 -14.441406 2.039062 -14.578125 2.28125 -14.578125 L 4.4375 -14.578125 C 4.65625 -14.578125 4.765625 -14.457031 4.765625 -14.21875 L 4.765625 -12.71875 C 4.765625 -12.601562 4.789062 -12.535156 4.84375 -12.515625 C 4.894531 -12.492188 4.957031 -12.53125 5.03125 -12.625 C 5.945312 -13.394531 6.765625 -13.957031 7.484375 -14.3125 C 8.210938 -14.675781 9 -14.859375 9.84375 -14.859375 C 10.851562 -14.859375 11.6875 -14.628906 12.34375 -14.171875 C 13.007812 -13.710938 13.484375 -13.113281 13.765625 -12.375 C 13.796875 -12.320312 13.832031 -12.296875 13.875 -12.296875 C 13.945312 -12.296875 14.023438 -12.34375 14.109375 -12.4375 C 14.972656 -13.226562 15.800781 -13.828125 16.59375 -14.234375 C 17.382812 -14.648438 18.207031 -14.859375 19.0625 -14.859375 C 20.382812 -14.859375 21.414062 -14.476562 22.15625 -13.71875 C 22.90625 -12.957031 23.28125 -11.914062 23.28125 -10.59375 L 23.28125 -0.5 C 23.28125 -0.164062 23.113281 0 22.78125 0 L 20.75 0 C 20.601562 0 20.5 -0.03125 20.4375 -0.09375 C 20.382812 -0.15625 20.359375 -0.269531 20.359375 -0.4375 L 20.359375 -10.078125 C 20.359375 -10.898438 20.15625 -11.535156 19.75 -11.984375 C 19.351562 -12.429688 18.75 -12.65625 17.9375 -12.65625 C 16.84375 -12.65625 15.671875 -12.078125 14.421875 -10.921875 C 14.285156 -10.796875 14.191406 -10.671875 14.140625 -10.546875 C 14.085938 -10.429688 14.0625 -10.289062 14.0625 -10.125 L 14.0625 -0.5 C 14.0625 -0.164062 13.894531 0 13.5625 0 L 11.5625 0 C 11.28125 0 11.140625 -0.144531 11.140625 -0.4375 L 11.140625 -10.078125 C 11.140625 -10.898438 10.941406 -11.535156 10.546875 -11.984375 C 10.148438 -12.429688 9.539062 -12.65625 8.71875 -12.65625 C 8.0625 -12.65625 7.445312 -12.492188 6.875 -12.171875 C 6.3125 -11.847656 5.632812 -11.320312 4.84375 -10.59375 L 4.84375 -0.46875 C 4.84375 -0.300781 4.800781 -0.179688 4.71875 -0.109375 C 4.632812 -0.0351562 4.5 0 4.3125 0 Z M 2.359375 0 "/></g></g></g><g fill="#e60378" fill-opacity="1"><g transform="translate(279.434482, 65.385731)"><g><path d="M 2.921875 4.546875 C 2.296875 4.546875 1.859375 4.519531 1.609375 4.46875 C 1.359375 4.425781 1.234375 4.3125 1.234375 4.125 L 1.234375 2.71875 C 1.234375 2.46875 1.492188 2.34375 2.015625 2.34375 L 3.796875 2.34375 C 4.203125 2.34375 4.582031 2.203125 4.9375 1.921875 C 5.289062 1.648438 5.566406 1.300781 5.765625 0.875 C 5.972656 0.457031 6.078125 0.046875 6.078125 -0.359375 C 6.078125 -0.597656 6.039062 -0.800781 5.96875 -0.96875 L 0.71875 -14.0625 C 0.695312 -14.09375 0.6875 -14.15625 0.6875 -14.25 C 0.6875 -14.46875 0.816406 -14.578125 1.078125 -14.578125 L 3.328125 -14.578125 C 3.441406 -14.578125 3.539062 -14.546875 3.625 -14.484375 C 3.71875 -14.421875 3.773438 -14.332031 3.796875 -14.21875 L 7.59375 -4.3125 C 7.644531 -4.15625 7.707031 -4.078125 7.78125 -4.078125 C 7.894531 -4.078125 7.988281 -4.1875 8.0625 -4.40625 L 11.796875 -14.25 C 11.890625 -14.46875 12.039062 -14.578125 12.25 -14.578125 L 13.875 -14.578125 C 14 -14.578125 14.09375 -14.523438 14.15625 -14.421875 C 14.21875 -14.328125 14.222656 -14.222656 14.171875 -14.109375 L 8.25 0.875 C 7.863281 1.863281 7.429688 2.617188 6.953125 3.140625 C 6.484375 3.671875 5.929688 4.035156 5.296875 4.234375 C 4.660156 4.441406 3.867188 4.546875 2.921875 4.546875 Z M 2.921875 4.546875 "/></g></g></g><g fill="#e60378" fill-opacity="1"><g transform="translate(7.531924, 97.976443)"><g><path d="M 34.265625 -35.578125 C 33.035156 -37.265625 31.425781 -38.617188 29.4375 -39.640625 C 27.457031 -40.671875 25.148438 -41.1875 22.515625 -41.1875 C 19.597656 -41.1875 17.203125 -40.585938 15.328125 -39.390625 C 13.460938 -38.191406 12.53125 -36.570312 12.53125 -34.53125 C 12.53125 -33.351562 12.992188 -32.296875 13.921875 -31.359375 C 14.859375 -30.429688 16.554688 -29.617188 19.015625 -28.921875 L 29.796875 -25.84375 C 33.878906 -24.789062 36.898438 -23.171875 38.859375 -20.984375 C 40.816406 -18.796875 41.796875 -16.210938 41.796875 -13.234375 C 41.796875 -10.429688 40.960938 -7.960938 39.296875 -5.828125 C 37.628906 -3.691406 35.304688 -2.039062 32.328125 -0.875 C 29.347656 0.289062 25.988281 0.875 22.25 0.875 C 17.582031 0.875 13.46875 -0.015625 9.90625 -1.796875 C 6.34375 -3.578125 3.800781 -5.898438 2.28125 -8.765625 C 2.101562 -9.054688 2.015625 -9.316406 2.015625 -9.546875 C 2.015625 -9.898438 2.160156 -10.164062 2.453125 -10.34375 L 6.75 -12.625 C 7.09375 -12.789062 7.382812 -12.875 7.625 -12.875 C 7.914062 -12.875 8.148438 -12.757812 8.328125 -12.53125 C 11.421875 -7.851562 16.003906 -5.515625 22.078125 -5.515625 C 25.296875 -5.515625 27.953125 -6.113281 30.046875 -7.3125 C 32.148438 -8.507812 33.203125 -10.132812 33.203125 -12.1875 C 33.203125 -13.644531 32.601562 -14.882812 31.40625 -15.90625 C 30.21875 -16.925781 28.25 -17.785156 25.5 -18.484375 L 16.5625 -20.765625 C 12.238281 -21.816406 9.082031 -23.363281 7.09375 -25.40625 C 5.113281 -27.457031 4.125 -30.03125 4.125 -33.125 C 4.125 -35.925781 4.894531 -38.390625 6.4375 -40.515625 C 7.988281 -42.648438 10.148438 -44.316406 12.921875 -45.515625 C 15.703125 -46.710938 18.929688 -47.3125 22.609375 -47.3125 C 26.578125 -47.3125 30.140625 -46.550781 33.296875 -45.03125 C 36.453125 -43.519531 38.816406 -41.535156 40.390625 -39.078125 C 40.628906 -38.734375 40.75 -38.441406 40.75 -38.203125 C 40.75 -37.972656 40.601562 -37.769531 40.3125 -37.59375 L 35.75 -35.21875 C 35.632812 -35.164062 35.457031 -35.140625 35.21875 -35.140625 C 34.875 -35.140625 34.554688 -35.285156 34.265625 -35.578125 Z M 34.265625 -35.578125 "/></g></g></g><g fill="#e60378" fill-opacity="1"><g transform="translate(61.067563, 97.976443)"><g><path d="M 13.234375 -19.984375 C 13.234375 -17.347656 13.859375 -14.960938 15.109375 -12.828125 C 16.367188 -10.703125 18.078125 -9.007812 20.234375 -7.75 C 22.398438 -6.5 24.769531 -5.875 27.34375 -5.875 C 30.03125 -5.875 32.421875 -6.425781 34.515625 -7.53125 C 36.617188 -8.644531 38.550781 -10.367188 40.3125 -12.703125 C 40.488281 -12.941406 40.691406 -13.0625 40.921875 -13.0625 C 41.210938 -13.0625 41.445312 -13 41.625 -12.875 L 46.09375 -10.78125 C 46.382812 -10.601562 46.53125 -10.367188 46.53125 -10.078125 C 46.53125 -9.898438 46.441406 -9.664062 46.265625 -9.375 C 43.804688 -5.75 41 -3.132812 37.84375 -1.53125 C 34.695312 0.0703125 30.875 0.875 26.375 0.875 C 21.988281 0.875 18.070312 -0.113281 14.625 -2.09375 C 11.1875 -4.082031 8.503906 -6.875 6.578125 -10.46875 C 4.648438 -14.0625 3.6875 -18.132812 3.6875 -22.6875 C 3.6875 -27.601562 4.675781 -31.925781 6.65625 -35.65625 C 8.644531 -39.394531 11.347656 -42.269531 14.765625 -44.28125 C 18.179688 -46.300781 21.992188 -47.3125 26.203125 -47.3125 C 30.523438 -47.3125 34.320312 -46.363281 37.59375 -44.46875 C 40.863281 -42.570312 43.390625 -39.8125 45.171875 -36.1875 C 46.953125 -32.5625 47.84375 -28.269531 47.84375 -23.3125 L 47.84375 -22.953125 C 47.84375 -22.429688 47.769531 -22.035156 47.625 -21.765625 C 47.476562 -21.503906 47.113281 -21.375 46.53125 -21.375 L 14.109375 -21.375 C 13.523438 -21.375 13.234375 -20.910156 13.234375 -19.984375 Z M 37.15625 -26.90625 C 37.738281 -26.90625 38.128906 -26.988281 38.328125 -27.15625 C 38.535156 -27.332031 38.640625 -27.65625 38.640625 -28.125 C 38.640625 -30.40625 38.15625 -32.535156 37.1875 -34.515625 C 36.226562 -36.503906 34.828125 -38.097656 32.984375 -39.296875 C 31.148438 -40.492188 28.976562 -41.09375 26.46875 -41.09375 C 23.832031 -41.09375 21.519531 -40.4375 19.53125 -39.125 C 17.550781 -37.8125 16.019531 -36.085938 14.9375 -33.953125 C 13.851562 -31.816406 13.34375 -29.492188 13.40625 -26.984375 Z M 37.15625 -26.90625 "/></g></g></g><g fill="#e60378" fill-opacity="1"><g transform="translate(120.210714, 97.976443)"><g><path d="M 13.234375 -19.984375 C 13.234375 -17.347656 13.859375 -14.960938 15.109375 -12.828125 C 16.367188 -10.703125 18.078125 -9.007812 20.234375 -7.75 C 22.398438 -6.5 24.769531 -5.875 27.34375 -5.875 C 30.03125 -5.875 32.421875 -6.425781 34.515625 -7.53125 C 36.617188 -8.644531 38.550781 -10.367188 40.3125 -12.703125 C 40.488281 -12.941406 40.691406 -13.0625 40.921875 -13.0625 C 41.210938 -13.0625 41.445312 -13 41.625 -12.875 L 46.09375 -10.78125 C 46.382812 -10.601562 46.53125 -10.367188 46.53125 -10.078125 C 46.53125 -9.898438 46.441406 -9.664062 46.265625 -9.375 C 43.804688 -5.75 41 -3.132812 37.84375 -1.53125 C 34.695312 0.0703125 30.875 0.875 26.375 0.875 C 21.988281 0.875 18.070312 -0.113281 14.625 -2.09375 C 11.1875 -4.082031 8.503906 -6.875 6.578125 -10.46875 C 4.648438 -14.0625 3.6875 -18.132812 3.6875 -22.6875 C 3.6875 -27.601562 4.675781 -31.925781 6.65625 -35.65625 C 8.644531 -39.394531 11.347656 -42.269531 14.765625 -44.28125 C 18.179688 -46.300781 21.992188 -47.3125 26.203125 -47.3125 C 30.523438 -47.3125 34.320312 -46.363281 37.59375 -44.46875 C 40.863281 -42.570312 43.390625 -39.8125 45.171875 -36.1875 C 46.953125 -32.5625 47.84375 -28.269531 47.84375 -23.3125 L 47.84375 -22.953125 C 47.84375 -22.429688 47.769531 -22.035156 47.625 -21.765625 C 47.476562 -21.503906 47.113281 -21.375 46.53125 -21.375 L 14.109375 -21.375 C 13.523438 -21.375 13.234375 -20.910156 13.234375 -19.984375 Z M 37.15625 -26.90625 C 37.738281 -26.90625 38.128906 -26.988281 38.328125 -27.15625 C 38.535156 -27.332031 38.640625 -27.65625 38.640625 -28.125 C 38.640625 -30.40625 38.15625 -32.535156 37.1875 -34.515625 C 36.226562 -36.503906 34.828125 -38.097656 32.984375 -39.296875 C 31.148438 -40.492188 28.976562 -41.09375 26.46875 -41.09375 C 23.832031 -41.09375 21.519531 -40.4375 19.53125 -39.125 C 17.550781 -37.8125 16.019531 -36.085938 14.9375 -33.953125 C 13.851562 -31.816406 13.34375 -29.492188 13.40625 -26.984375 Z M 37.15625 -26.90625 "/></g></g></g><g fill="#e60378" fill-opacity="1"><g transform="translate(179.353873, 97.976443)"><g><path d="M 48.1875 -1.671875 C 48.3125 -1.492188 48.375 -1.226562 48.375 -0.875 C 48.375 -0.289062 47.992188 0 47.234375 0 L 39.4375 0 C 38.613281 0 38.023438 -0.4375 37.671875 -1.3125 L 25.671875 -22.515625 C 25.492188 -22.867188 25.316406 -23.046875 25.140625 -23.046875 C 24.972656 -23.046875 24.769531 -22.925781 24.53125 -22.6875 L 16.203125 -14.375 C 15.742188 -13.957031 15.515625 -13.34375 15.515625 -12.53125 L 15.515625 -1.671875 C 15.515625 -1.023438 15.378906 -0.582031 15.109375 -0.34375 C 14.847656 -0.113281 14.394531 0 13.75 0 L 7.71875 0 C 7.125 0 6.722656 -0.0976562 6.515625 -0.296875 C 6.316406 -0.503906 6.21875 -0.875 6.21875 -1.40625 L 6.21875 -63.703125 C 6.21875 -64.578125 6.597656 -65.015625 7.359375 -65.015625 L 14.375 -65.015625 C 15.132812 -65.015625 15.515625 -64.578125 15.515625 -63.703125 L 15.515625 -24.53125 C 15.515625 -24.007812 15.628906 -23.75 15.859375 -23.75 C 15.972656 -23.75 16.175781 -23.894531 16.46875 -24.1875 L 36.453125 -45.296875 C 37.210938 -46.054688 37.882812 -46.4375 38.46875 -46.4375 L 45.046875 -46.4375 C 45.859375 -46.4375 46.265625 -46.203125 46.265625 -45.734375 C 46.265625 -45.390625 46.0625 -45.007812 45.65625 -44.59375 L 32.328125 -31.015625 C 32.035156 -30.722656 31.890625 -30.429688 31.890625 -30.140625 C 31.890625 -29.960938 31.976562 -29.640625 32.15625 -29.171875 Z M 48.1875 -1.671875 "/></g></g></g><g fill="#e60378" fill-opacity="1"><g transform="translate(249.190741, 96.510362)"><g><path d="M 12.21875 -12.6875 C 11.78125 -13.289062 11.207031 -13.773438 10.5 -14.140625 C 9.789062 -14.503906 8.96875 -14.6875 8.03125 -14.6875 C 6.988281 -14.6875 6.132812 -14.472656 5.46875 -14.046875 C 4.800781 -13.617188 4.46875 -13.039062 4.46875 -12.3125 C 4.46875 -11.894531 4.632812 -11.519531 4.96875 -11.1875 C 5.300781 -10.851562 5.90625 -10.5625 6.78125 -10.3125 L 10.625 -9.21875 C 12.082031 -8.84375 13.160156 -8.265625 13.859375 -7.484375 C 14.554688 -6.703125 14.90625 -5.78125 14.90625 -4.71875 C 14.90625 -3.71875 14.609375 -2.835938 14.015625 -2.078125 C 13.421875 -1.316406 12.59375 -0.726562 11.53125 -0.3125 C 10.46875 0.101562 9.269531 0.3125 7.9375 0.3125 C 6.269531 0.3125 4.800781 -0.00390625 3.53125 -0.640625 C 2.257812 -1.273438 1.351562 -2.101562 0.8125 -3.125 C 0.75 -3.226562 0.71875 -3.320312 0.71875 -3.40625 C 0.71875 -3.53125 0.769531 -3.625 0.875 -3.6875 L 2.40625 -4.5 C 2.53125 -4.5625 2.632812 -4.59375 2.71875 -4.59375 C 2.820312 -4.59375 2.90625 -4.550781 2.96875 -4.46875 C 4.070312 -2.800781 5.707031 -1.96875 7.875 -1.96875 C 9.019531 -1.96875 9.96875 -2.179688 10.71875 -2.609375 C 11.46875 -3.035156 11.84375 -3.613281 11.84375 -4.34375 C 11.84375 -4.863281 11.628906 -5.304688 11.203125 -5.671875 C 10.773438 -6.035156 10.070312 -6.34375 9.09375 -6.59375 L 5.90625 -7.40625 C 4.363281 -7.78125 3.238281 -8.332031 2.53125 -9.0625 C 1.820312 -9.789062 1.46875 -10.707031 1.46875 -11.8125 C 1.46875 -12.8125 1.742188 -13.691406 2.296875 -14.453125 C 2.847656 -15.222656 3.617188 -15.820312 4.609375 -16.25 C 5.597656 -16.675781 6.75 -16.890625 8.0625 -16.890625 C 9.476562 -16.890625 10.75 -16.613281 11.875 -16.0625 C 13 -15.519531 13.84375 -14.8125 14.40625 -13.9375 C 14.488281 -13.8125 14.53125 -13.707031 14.53125 -13.625 C 14.53125 -13.539062 14.476562 -13.46875 14.375 -13.40625 L 12.75 -12.5625 C 12.707031 -12.539062 12.644531 -12.53125 12.5625 -12.53125 C 12.4375 -12.53125 12.320312 -12.582031 12.21875 -12.6875 Z M 12.21875 -12.6875 "/></g></g></g><g fill="#e60378" fill-opacity="1"><g transform="translate(271.322341, 96.510362)"><g><path d="M 11.65625 -1.875 C 10.132812 -0.414062 8.351562 0.3125 6.3125 0.3125 C 4.707031 0.3125 3.441406 -0.0976562 2.515625 -0.921875 C 1.585938 -1.742188 1.125 -2.84375 1.125 -4.21875 C 1.125 -5.90625 1.859375 -7.25 3.328125 -8.25 C 4.796875 -9.25 6.882812 -9.8125 9.59375 -9.9375 L 11.625 -10.09375 C 11.957031 -10.132812 12.125 -10.289062 12.125 -10.5625 L 12.125 -11.34375 C 12.125 -12.363281 11.8125 -13.171875 11.1875 -13.765625 C 10.5625 -14.359375 9.707031 -14.65625 8.625 -14.65625 C 6.914062 -14.65625 5.550781 -13.882812 4.53125 -12.34375 C 4.46875 -12.21875 4.398438 -12.140625 4.328125 -12.109375 C 4.253906 -12.078125 4.144531 -12.082031 4 -12.125 L 1.875 -12.75 C 1.75 -12.789062 1.6875 -12.875 1.6875 -13 C 1.6875 -13.082031 1.71875 -13.195312 1.78125 -13.34375 C 2.363281 -14.46875 3.253906 -15.335938 4.453125 -15.953125 C 5.648438 -16.578125 7.09375 -16.890625 8.78125 -16.890625 C 10.96875 -16.890625 12.601562 -16.414062 13.6875 -15.46875 C 14.769531 -14.53125 15.3125 -13.226562 15.3125 -11.5625 L 15.3125 -0.53125 C 15.3125 -0.320312 15.273438 -0.179688 15.203125 -0.109375 C 15.128906 -0.0351562 15.007812 0 14.84375 0 L 12.75 0 C 12.457031 0 12.289062 -0.207031 12.25 -0.625 L 12.1875 -1.8125 C 12.144531 -1.976562 12.082031 -2.0625 12 -2.0625 C 11.9375 -2.0625 11.820312 -2 11.65625 -1.875 Z M 12.125 -7.78125 C 12.125 -8.113281 11.976562 -8.269531 11.6875 -8.25 L 10 -8.125 C 8.269531 -8.019531 6.898438 -7.671875 5.890625 -7.078125 C 4.878906 -6.484375 4.375 -5.664062 4.375 -4.625 C 4.375 -3.8125 4.664062 -3.171875 5.25 -2.703125 C 5.832031 -2.234375 6.613281 -2 7.59375 -2 C 8.71875 -2 9.78125 -2.382812 10.78125 -3.15625 C 11.675781 -3.882812 12.125 -4.613281 12.125 -5.34375 Z M 12.125 -7.78125 "/></g></g></g><g fill="#e60378" fill-opacity="1"><g transform="translate(294.516639, 96.510362)"><g><path d="M 5.53125 -0.59375 C 5.53125 -0.363281 5.484375 -0.207031 5.390625 -0.125 C 5.296875 -0.0390625 5.125 0 4.875 0 L 2.75 0 C 2.539062 0 2.394531 -0.0351562 2.3125 -0.109375 C 2.226562 -0.179688 2.1875 -0.3125 2.1875 -0.5 L 2.25 -22.734375 C 2.25 -23.046875 2.382812 -23.203125 2.65625 -23.203125 L 5.125 -23.203125 C 5.394531 -23.203125 5.53125 -23.046875 5.53125 -22.734375 Z M 5.53125 -0.59375 "/></g></g></g><g fill="#e60378" fill-opacity="1"><g transform="translate(308.209086, 96.510362)"><g><path d="M 11.65625 -1.875 C 10.132812 -0.414062 8.351562 0.3125 6.3125 0.3125 C 4.707031 0.3125 3.441406 -0.0976562 2.515625 -0.921875 C 1.585938 -1.742188 1.125 -2.84375 1.125 -4.21875 C 1.125 -5.90625 1.859375 -7.25 3.328125 -8.25 C 4.796875 -9.25 6.882812 -9.8125 9.59375 -9.9375 L 11.625 -10.09375 C 11.957031 -10.132812 12.125 -10.289062 12.125 -10.5625 L 12.125 -11.34375 C 12.125 -12.363281 11.8125 -13.171875 11.1875 -13.765625 C 10.5625 -14.359375 9.707031 -14.65625 8.625 -14.65625 C 6.914062 -14.65625 5.550781 -13.882812 4.53125 -12.34375 C 4.46875 -12.21875 4.398438 -12.140625 4.328125 -12.109375 C 4.253906 -12.078125 4.144531 -12.082031 4 -12.125 L 1.875 -12.75 C 1.75 -12.789062 1.6875 -12.875 1.6875 -13 C 1.6875 -13.082031 1.71875 -13.195312 1.78125 -13.34375 C 2.363281 -14.46875 3.253906 -15.335938 4.453125 -15.953125 C 5.648438 -16.578125 7.09375 -16.890625 8.78125 -16.890625 C 10.96875 -16.890625 12.601562 -16.414062 13.6875 -15.46875 C 14.769531 -14.53125 15.3125 -13.226562 15.3125 -11.5625 L 15.3125 -0.53125 C 15.3125 -0.320312 15.273438 -0.179688 15.203125 -0.109375 C 15.128906 -0.0351562 15.007812 0 14.84375 0 L 12.75 0 C 12.457031 0 12.289062 -0.207031 12.25 -0.625 L 12.1875 -1.8125 C 12.144531 -1.976562 12.082031 -2.0625 12 -2.0625 C 11.9375 -2.0625 11.820312 -2 11.65625 -1.875 Z M 12.125 -7.78125 C 12.125 -8.113281 11.976562 -8.269531 11.6875 -8.25 L 10 -8.125 C 8.269531 -8.019531 6.898438 -7.671875 5.890625 -7.078125 C 4.878906 -6.484375 4.375 -5.664062 4.375 -4.625 C 4.375 -3.8125 4.664062 -3.171875 5.25 -2.703125 C 5.832031 -2.234375 6.613281 -2 7.59375 -2 C 8.71875 -2 9.78125 -2.382812 10.78125 -3.15625 C 11.675781 -3.882812 12.125 -4.613281 12.125 -5.34375 Z M 12.125 -7.78125 "/></g></g></g><g fill="#e60378" fill-opacity="1"><g transform="translate(331.403384, 96.510362)"><g><path d="M 2.6875 0 C 2.351562 0 2.1875 -0.164062 2.1875 -0.5 L 2.1875 -16.109375 C 2.1875 -16.421875 2.320312 -16.578125 2.59375 -16.578125 L 5 -16.578125 C 5.25 -16.578125 5.375 -16.441406 5.375 -16.171875 L 5.375 -14.1875 C 5.375 -14.0625 5.410156 -13.988281 5.484375 -13.96875 C 5.554688 -13.945312 5.632812 -13.988281 5.71875 -14.09375 C 6.488281 -14.988281 7.285156 -15.675781 8.109375 -16.15625 C 8.929688 -16.644531 9.738281 -16.890625 10.53125 -16.890625 C 11.257812 -16.890625 11.625 -16.742188 11.625 -16.453125 L 11.625 -14 C 11.625 -13.75 11.507812 -13.644531 11.28125 -13.6875 C 10.882812 -13.789062 10.332031 -13.84375 9.625 -13.84375 C 9.039062 -13.84375 8.425781 -13.679688 7.78125 -13.359375 C 7.132812 -13.035156 6.59375 -12.613281 6.15625 -12.09375 C 5.71875 -11.570312 5.5 -11.039062 5.5 -10.5 L 5.5 -0.53125 C 5.5 -0.175781 5.300781 0 4.90625 0 Z M 2.6875 0 "/></g></g></g><g fill="#e60378" fill-opacity="1"><g transform="translate(349.721723, 96.510362)"><g><path d="M 3.3125 5.15625 C 2.601562 5.15625 2.109375 5.128906 1.828125 5.078125 C 1.546875 5.023438 1.40625 4.894531 1.40625 4.6875 L 1.40625 3.09375 C 1.40625 2.800781 1.695312 2.65625 2.28125 2.65625 L 4.3125 2.65625 C 4.769531 2.65625 5.203125 2.5 5.609375 2.1875 C 6.015625 1.875 6.332031 1.476562 6.5625 1 C 6.789062 0.519531 6.90625 0.0507812 6.90625 -0.40625 C 6.90625 -0.675781 6.863281 -0.90625 6.78125 -1.09375 L 0.8125 -15.984375 C 0.789062 -16.023438 0.78125 -16.097656 0.78125 -16.203125 C 0.78125 -16.453125 0.925781 -16.578125 1.21875 -16.578125 L 3.78125 -16.578125 C 3.90625 -16.578125 4.019531 -16.539062 4.125 -16.46875 C 4.226562 -16.394531 4.289062 -16.296875 4.3125 -16.171875 L 8.625 -4.90625 C 8.6875 -4.71875 8.757812 -4.625 8.84375 -4.625 C 8.96875 -4.625 9.070312 -4.75 9.15625 -5 L 13.40625 -16.203125 C 13.507812 -16.453125 13.675781 -16.578125 13.90625 -16.578125 L 15.765625 -16.578125 C 15.910156 -16.578125 16.019531 -16.519531 16.09375 -16.40625 C 16.164062 -16.289062 16.171875 -16.171875 16.109375 -16.046875 L 9.375 1 C 8.9375 2.125 8.445312 2.984375 7.90625 3.578125 C 7.363281 4.171875 6.734375 4.582031 6.015625 4.8125 C 5.296875 5.039062 4.394531 5.15625 3.3125 5.15625 Z M 3.3125 5.15625 "/></g></g></g></svg>